# xmcd CD database file generated by GCD 2.95
# 
# Track frame offsets:
#       150
#       12533
#       29204
#       43404
#       54065
#       69118
#       82744
#       94809
#       104619
#       124019
#       135694
#       154752
#       169650
#       184915
# 
# Disc length: 2653 seconds
# 
# Revision: 3
# Processed by: cddbd v1.4PL0 Copyright (c) Steve Scherf et al.
# Submitted via: GCD 2.95
# 
DISCID=b90a5b0e
DTITLE=Gina Lee - Where Ya Been?
DYEAR=1900
DGENRE=country
TTITLE0=Little Gold Band
TTITLE1=Layer of Frost
TTITLE2=Livin' Free
TTITLE3=Hard Headed
TTITLE4=I Wonder
TTITLE5=Crying Steel Guitar Waltz
TTITLE6=Who Said So Long
TTITLE7=Where Ya Been?
TTITLE8=St. James Avenue
TTITLE9=Catfight
TTITLE10=Hank
TTITLE11=Along the Navajo Trail
TTITLE12=Caddio Daddio
TTITLE13=Long Gone Lonesome Blues
EXTD=
EXTT0=
EXTT1=
EXTT2=
EXTT3=
EXTT4=
EXTT5=
EXTT6=
EXTT7=
EXTT8=
EXTT9=
EXTT10=
EXTT11=
EXTT12=
EXTT13=
PLAYORDER=
